<svg xmlns="http://www.w3.org/2000/svg" viewBox="0 0 500 276">
  <path d="M357.56,15.06c37.24-16.76,70.09-17.71,85.68,1,5.6,6.73,8.51,15.46,9,25.56,12.3,1.43,23.07,6.47,31.62,15.76,33.67,36.63-2.55,104.39-63.47,160.87-20.39,18.9-42,33.83-62.82,44.17V226a246.46,246.46,0,0,0,42.9-30.7c47.32-41.79,73.92-102.18,58.71-118.84-2.7-3-6.47-4.74-11.09-5.46-9.44,31.8-34.23,69.61-69.89,102.51Q368,182.88,357.56,191v-41.6c5.47-4.43,10.94-9.33,16.32-14.65,17.71-17.53,31.44-38.21,39.61-56.6-16.81,7.23-36.28,19.43-55.93,35.52V76.78c22.22-15.84,44.32-27.23,64.38-32.41-.21-5.12-1.55-9.18-4.14-11.8-9.39-9.47-33.6-4.26-60.24,12.65V15.06ZM237.3,108.44c21.15-30.22,50.21-55.53,82.05-73.67-25.54,20.6-48.47,47.52-66.37,77.69C208.37,187.71,228,256.58,292,266a88.73,88.73,0,0,0,30.39-1.19c-19.65,7.41-38.25,10.86-54.56,7.85-66-12.2-83.15-89-30.52-164.21Z" fill="#0857c3" fill-rule="evenodd"/>
  <polygon points="335.53 160.1 344.83 160.1 340.34 182.3 353.89 182.3 352.42 188.95 329.59 188.95 335.53 160.1 335.53 160.1" fill="#fff" fill-rule="evenodd"/>
  <polygon points="306.3 160.1 315.55 160.1 311.07 182.3 324.65 182.3 323.19 188.95 300.35 188.95 306.3 160.1 306.3 160.1" fill="#fff" fill-rule="evenodd"/>
  <polygon points="274.91 160.1 298.93 160.1 297.57 166.92 283.19 166.92 282.29 171.05 295.5 171.05 294.5 178.05 281.2 178.05 280.03 182.62 294.56 182.62 293.29 188.95 268.97 188.95 274.91 160.1 274.91 160.1" fill="#fff" fill-rule="evenodd"/>
  <polygon points="174.39 160.1 183.22 160.1 190.38 175.65 193.59 160.1 202.36 160.1 196.21 188.95 188.06 188.95 180.13 173.35 177.66 188.95 168.32 188.95 174.39 160.1 174.39 160.1" fill="#fff" fill-rule="evenodd"/>
  <path d="M101.36,179.19l8,0a2.84,2.84,0,0,0,1.56,2.55,6.78,6.78,0,0,0,3.57,1,7.15,7.15,0,0,0,3.16-.51c.55-.34,1.38-.68,1.53-1.58a2.32,2.32,0,0,0-.59-2.06c-.56-.6-2-1.17-4.37-1.71-3.86-.91-6.5-2.1-7.91-3.59a6,6,0,0,1-1.42-5.72,9.47,9.47,0,0,1,2.23-4.31A11.76,11.76,0,0,1,111.8,160a21,21,0,0,1,7.59-1.16c3.81,0,6.58.7,8.29,2.11s2.43,4.18,2.18,7.25l-8.43-.49c0-1.33-.05-1.59-.67-2.19a4.48,4.48,0,0,0-3.06-.8,5.4,5.4,0,0,0-2.85,1,3.53,3.53,0,0,0-1.24,2,1.36,1.36,0,0,0,.4,1.27,6.32,6.32,0,0,0,2.88,1.09,31.85,31.85,0,0,1,8.11,2.62,5.52,5.52,0,0,1,2.81,3,7.44,7.44,0,0,1,.67,4.35,10.83,10.83,0,0,1-2.62,5.06,13.17,13.17,0,0,1-5.2,3.64c-2.07.83-4.68.68-7.57.68q-7.62,0-9.94-2.91a9.49,9.49,0,0,1-1.79-7.39Z" fill="#fff" fill-rule="evenodd"/>
  <polygon points="75.23 160.1 101.07 160.1 99.59 166.81 91.4 166.81 86.93 188.95 78.01 188.95 82.49 166.81 73.93 166.81 75.23 160.1 75.23 160.1" fill="#fff" fill-rule="evenodd"/>
  <polygon points="3.27 160.27 11.73 160.27 13.56 176.39 21.33 160.27 28.25 160.27 28.99 176.39 36.76 160.27 45.19 160.27 32.39 189.12 23.65 189.12 21.32 174.52 14.58 189.12 5.84 189.12 3.27 160.27 3.27 160.27" fill="#fff" fill-rule="evenodd"/>
  <path d="M242.19,160.1h16.69c2.78,0,4.78.69,6,2.07a5.6,5.6,0,0,1,1.18,5.11,8,8,0,0,1-2.5,4.39,8.72,8.72,0,0,1-3.42,1.93,6.05,6.05,0,0,1,4,2.57,6.25,6.25,0,0,1,.52,4.57,9.62,9.62,0,0,1-1.88,4,10.44,10.44,0,0,1-3.43,2.83,11,11,0,0,1-3.59.94c-2.06.26-3.42.4-4.07.4H235.46l6.73-28.85ZM247,183.33h4.19a5,5,0,0,0,3.24-.89,4,4,0,0,0,1.33-2.42,2.62,2.62,0,0,0-.49-2.26c-.49-.57-1.47-.85-3-.85H248l-1,6.42Zm2.25-11.62h3.79a4.91,4.91,0,0,0,3.06-.76,3.43,3.43,0,0,0,1.24-2.18,2.3,2.3,0,0,0-.4-2.08,3.66,3.66,0,0,0-2.71-.75h-3.93l-1.05,5.77Z" fill="#fff" fill-rule="evenodd"/>
  <path d="M134.66,174q1.41-7.32,6-11.38a16.58,16.58,0,0,1,11.41-4.08q7,0,10,4t1.61,11.2a22.56,22.56,0,0,1-3.31,8.59,16.38,16.38,0,0,1-5.77,5.22,17,17,0,0,1-8.14,1.86,15.08,15.08,0,0,1-7.52-1.6,9.29,9.29,0,0,1-4-5.1,16.59,16.59,0,0,1-.24-8.72Zm8.29-.2q-.93,4.06.34,5.85a4.78,4.78,0,0,0,4.16,1.77,7.41,7.41,0,0,0,5-1.74c1.35-1.16,2.38-3.24,3.06-6.24.58-2.53.43-4.38-.43-5.55a4.92,4.92,0,0,0-4.21-1.74A7.27,7.27,0,0,0,146,168q-2.1,1.77-3,5.87Z" fill="#fff" fill-rule="evenodd"/>
  <path d="M60.44,185H48.55l-2.25,4H37.19L55.37,160.1H65.1L71.15,189H61.49l-1.05-4Zm-1.24-6.34L57.44,171l-5,7.65Z" fill="#fff" fill-rule="evenodd"/>
</svg>