<svg xmlns="http://www.w3.org/2000/svg" viewBox="0 0 60 60"><path d="M10.65,16.45v1.94a5.78,5.78,0,0,0,2.67,4.88,2.51,2.51,0,0,1-1.94.92h-.14a4.48,4.48,0,0,0-4.47,4.47v5.21a1,1,0,0,0,1,1H25.16a1,1,0,0,0,1-1V31h7.74v2.9a1,1,0,0,0,1,1H52.26a1,1,0,0,0,1-1V28.66a4.48,4.48,0,0,0-4.47-4.47h-.14a2.51,2.51,0,0,1-1.94-.92,5.78,5.78,0,0,0,2.67-4.88V16.45a5.81,5.81,0,0,0-11.61,0v1.94a5.79,5.79,0,0,0,2.68,4.88,2.51,2.51,0,0,1-1.09.76,4.48,4.48,0,0,0-4.12-2.74h-.14a2.51,2.51,0,0,1-1.94-.92,5.82,5.82,0,0,0,2.68-4.89V13.55a5.81,5.81,0,0,0-11.62,0v1.93a5.82,5.82,0,0,0,2.68,4.89,2.51,2.51,0,0,1-1.94.92h-.14A4.48,4.48,0,0,0,20.67,24a2.51,2.51,0,0,1-1.09-.76,5.79,5.79,0,0,0,2.68-4.88V16.45a5.81,5.81,0,0,0-11.61,0ZM24.19,32.9H8.71V28.66a2.54,2.54,0,0,1,2.53-2.53h.14a4.53,4.53,0,0,0,.74-.07l.34.35a5.64,5.64,0,0,0,7.86.11V30a1,1,0,0,0,1,1h2.9Zm24.57-6.77a2.54,2.54,0,0,1,2.53,2.53V32.9H35.81V31h2.9a1,1,0,0,0,1-1V26.52a5.64,5.64,0,0,0,7.86-.11l.34-.35a4.53,4.53,0,0,0,.74.07Zm-9.08-9.68a3.87,3.87,0,0,1,7.74,0v1.94a3.87,3.87,0,0,1-7.74,0Zm3.87,7.74a5.64,5.64,0,0,0,1.3-.15,4.28,4.28,0,0,0,1.09,1.19,3.79,3.79,0,0,1-4.78,0A4.28,4.28,0,0,0,42.25,24a5.57,5.57,0,0,0,1.3.15ZM26.13,13.55a3.87,3.87,0,1,1,7.74,0v1.93a3.87,3.87,0,1,1-7.74,0ZM30,21.29a5.57,5.57,0,0,0,1.3-.15,4.28,4.28,0,0,0,1.09,1.19,3.79,3.79,0,0,1-4.78,0,4.28,4.28,0,0,0,1.09-1.19,5.57,5.57,0,0,0,1.3.15Zm-7.74,4.47a2.53,2.53,0,0,1,2.53-2.53h.14a4.4,4.4,0,0,0,.73-.07l.35.35a5.65,5.65,0,0,0,8,0l.35-.35a4.4,4.4,0,0,0,.73.07h.14a2.53,2.53,0,0,1,2.53,2.53V29H22.26Zm-3.42-.53a3.79,3.79,0,0,1-4.78,0A4.28,4.28,0,0,0,15.15,24a5.64,5.64,0,0,0,1.3.15,5.57,5.57,0,0,0,1.3-.15,4.28,4.28,0,0,0,1.09,1.19Zm1.48-8.78v1.94a3.87,3.87,0,0,1-7.74,0V16.45a3.87,3.87,0,0,1,7.74,0Z" fill="#fff"/><path d="M53.9,41,34.07,46.36a3.87,3.87,0,0,0-.48-.59L26.81,39a1,1,0,0,0-.68-.28H15.48v-1a1,1,0,0,0-1-1H1a1,1,0,0,0-1,1V59a1,1,0,0,0,1,1H8.71a1,1,0,0,0,1-1v-1h4.84a1,1,0,0,0,1-1v-1H22.1L27.76,58a.79.79,0,0,0,.3.05.86.86,0,0,0,.32-.05l31-10.64a1,1,0,0,0,.65-.92v-1A4.7,4.7,0,0,0,53.9,41ZM7.74,58.06H1.94V38.71h5.8Zm5.81-1.93H9.68V38.71h3.87ZM58.06,45.76l-30,10.31-5.5-1.83a1,1,0,0,0-.3-.05H15.48V40.65H25.73l6.49,6.49a1.77,1.77,0,0,1-2.5,2.5L24.88,44.8l-1.37,1.37L28.35,51a3.69,3.69,0,0,0,6.3-2.8l19.76-5.39a2.88,2.88,0,0,1,3.2,1.11,2.83,2.83,0,0,1,.45,1.55Z" fill="#fff"/><path d="M38.87,1.33C38.24,1.14,37.6,1,37,.81l-.45,1.88c.6.15,1.2.31,1.79.49Z" fill="#fff"/><path d="M58.06,30c0,.44,0,.87,0,1.3l1.94.09c0-.46,0-.92,0-1.39,0-.2,0-.39,0-.59l-1.93,0V30Z" fill="#fff"/><path d="M35,.42c-.64-.11-1.3-.2-2-.27l-.2,1.93c.62.06,1.23.14,1.83.25Z" fill="#fff"/><path d="M57.41,24l1.89-.41q-.21-1-.48-1.92L57,22.16c.17.59.32,1.19.45,1.79Z" fill="#fff"/><path d="M42.56,2.75c-.6-.28-1.21-.54-1.82-.77l-.69,1.81c.57.22,1.14.46,1.7.71Z" fill="#fff"/><path d="M58,27.61l1.93-.17c0-.66-.13-1.31-.23-2l-1.91.29c.09.61.16,1.22.21,1.84Z" fill="#fff"/><path d="M53,13.88l1.59-1.11c-.38-.54-.78-1.07-1.19-1.58L51.86,12.4c.39.48.76,1,1.11,1.48Z" fill="#fff"/><path d="M56.38,20.41l1.82-.67c-.22-.61-.47-1.23-.73-1.83l-1.77.78c.24.57.47,1.14.68,1.72Z" fill="#fff"/><path d="M52.08,9.69c-.44-.48-.91-.95-1.38-1.41l-1.34,1.4c.45.43.88.87,1.3,1.32Z" fill="#fff"/><path d="M46,4.64c-.55-.35-1.12-.69-1.7-1l-.93,1.7c.54.29,1.08.6,1.6.93Z" fill="#fff"/><path d="M56.74,38.56l1.84.59c.2-.63.38-1.27.54-1.9l-1.88-.47c-.15.6-.32,1.2-.5,1.78Z" fill="#fff"/><path d="M59.81,33.36l-1.92-.21c-.07.61-.16,1.22-.26,1.82l1.9.35c.12-.65.21-1.31.28-2Z" fill="#fff"/><path d="M49.22,7c-.5-.42-1-.83-1.55-1.22L46.53,7.31c.49.37,1,.75,1.45,1.14Z" fill="#fff"/><path d="M54.89,17l1.72-.89c-.3-.58-.63-1.16-1-1.72l-1.65,1C54.31,16,54.61,16.49,54.89,17Z" fill="#fff"/><path d="M3.1,22l-1.85-.55c-.19.63-.36,1.27-.5,1.91l1.88.43C2.77,23.15,2.93,22.55,3.1,22Z" fill="#fff"/><path d="M4.39,18.5l-1.76-.79c-.27.59-.52,1.21-.75,1.83l1.81.67c.21-.58.45-1.15.7-1.71Z" fill="#fff"/><path d="M6.13,15.24l-1.65-1c-.34.55-.67,1.13-1,1.71l1.71.91C5.5,16.29,5.8,15.76,6.13,15.24Z" fill="#fff"/><path d="M8.28,12.23,6.78,11c-.42.51-.82,1-1.2,1.57L7.15,13.7C7.51,13.2,7.89,12.71,8.28,12.23Z" fill="#fff"/><path d="M2,31.09c0-.36,0-.73,0-1.09s0-.5,0-.75L0,29.19c0,.27,0,.54,0,.81s0,.78,0,1.17Z" fill="#fff"/><path d="M2.28,25.56l-1.91-.3c-.1.65-.18,1.31-.24,2l1.92.18C2.11,26.78,2.19,26.17,2.28,25.56Z" fill="#fff"/><path d="M.16,33.14c.07.66.16,1.31.27,2l1.91-.33c-.1-.61-.19-1.22-.25-1.83Z" fill="#fff"/><path d="M13.66,7.18,12.53,5.61C12,6,11.47,6.4,11,6.81l1.23,1.5C12.67,7.92,13.16,7.54,13.66,7.18Z" fill="#fff"/><path d="M20.15,3.71,19.47,1.9c-.62.23-1.23.49-1.82.75l.8,1.77c.55-.26,1.12-.49,1.7-.71Z" fill="#fff"/><path d="M23.69,2.65,23.25.76c-.63.15-1.28.32-1.91.51l.56,1.85C22.49,2.94,23.09,2.79,23.69,2.65Z" fill="#fff"/><path d="M27.33,2.06,27.15.13c-.65.06-1.31.15-2,.25L25.5,2.3c.6-.1,1.22-.18,1.83-.24Z" fill="#fff"/><path d="M16.79,5.23l-.91-1.7c-.58.31-1.16.64-1.71,1l1,1.65C15.71,5.83,16.25,5.52,16.79,5.23Z" fill="#fff"/><path d="M29.92,1.94c.36,0,.74,0,1.11,0L31.1,0,30,0h-.88L29.18,2Z" fill="#fff"/><path d="M10.8,9.53,9.48,8.12c-.47.44-.94.91-1.4,1.4L9.5,10.84C9.92,10.38,10.36,9.94,10.8,9.53Z" fill="#fff"/></svg>