<svg xmlns="http://www.w3.org/2000/svg" viewBox="0 0 60 60"><path d="M48.75,44.66a3.84,3.84,0,0,0-1.13-2.79,4.23,4.23,0,0,0-1.4-.93,4.17,4.17,0,0,0,.51-1.9,3.73,3.73,0,0,0-1.11-2.73,4,4,0,0,0-1.71-1V3.52a3.52,3.52,0,0,0-6.83-1.18H12.42a1.15,1.15,0,0,0-1,.65,1.17,1.17,0,0,0,.1,1.22l6.42,8.68-6.42,8.68a1.17,1.17,0,0,0-.1,1.22,1.15,1.15,0,0,0,1,.65H36.87V31l-.37-.23,0,0-.29-.15a6.26,6.26,0,0,0-5.3-.78,14.1,14.1,0,0,0-5.48,3.61,5.64,5.64,0,0,1-4,2.09,1.17,1.17,0,0,0-1.15-.94H12.42a1.17,1.17,0,0,0-1.17,1.17v22A1.17,1.17,0,0,0,12.42,59h7.79a1.19,1.19,0,0,0,1.15-.92,24.52,24.52,0,0,1,3.71.84,20.84,20.84,0,0,0,5.49,1h7.83l2,.09h.16a3.9,3.9,0,0,0,2.69-1.08,3.62,3.62,0,0,0,1.14-2.64A4.07,4.07,0,0,0,44,54.57a3.85,3.85,0,0,0,1.51-.91A3.7,3.7,0,0,0,46.66,51a4.16,4.16,0,0,0-.77-2.4,4.13,4.13,0,0,0,2.86-3.89ZM44.38,39a1.65,1.65,0,0,1-1.56,1.68h0l-3.62.09a11.22,11.22,0,0,1,.12-3.23l3.44-.05A1.67,1.67,0,0,1,44,38a1.4,1.4,0,0,1,.42,1Zm-4-36.64a1.17,1.17,0,0,1,1.17,1.18V35.14l-1.89,0a3.61,3.61,0,0,0-.21-1.43,4.9,4.9,0,0,0-.24-.52V3.52A1.17,1.17,0,0,1,40.39,2.34ZM14.75,21.09l5.55-7.5a1.17,1.17,0,0,0,0-1.4l-5.55-7.5H36.87v16.4Zm11,35.57a26,26,0,0,0-4.32-.94V52.08a1.17,1.17,0,1,0-2.34,0v4.57H13.59V37H19v4.58a1.17,1.17,0,0,0,2.34,0V37.9A7.87,7.87,0,0,0,27,35.13,11.89,11.89,0,0,1,31.69,32a4.11,4.11,0,0,1,3.36.65l.3.16a4.18,4.18,0,0,1,1.91,1.7,3.36,3.36,0,0,1-.1,1.71l-.12.63a13.91,13.91,0,0,0-.1,4.81c0,.2.06.38.07.53a1.09,1.09,0,0,1-.55.17A1.91,1.91,0,0,1,35,41.91a3.17,3.17,0,0,1-1.15-2.57A10,10,0,0,0,33.68,38a1.17,1.17,0,0,0-1.39-.9,1.18,1.18,0,0,0-.9,1.39,8.23,8.23,0,0,1,.15,1.11,7.08,7.08,0,0,0,.4,2,6.75,6.75,0,0,1-5.75,4.06,1.18,1.18,0,0,0,0,2.35,8.8,8.8,0,0,0,4.46-1.44,3.91,3.91,0,0,0,.8,1.15l0,0a3.72,3.72,0,0,0-1.12,2.65A4.07,4.07,0,0,0,32.54,54,3.58,3.58,0,0,0,32,55.86a4.08,4.08,0,0,0,.38,1.71H30.56a18.67,18.67,0,0,1-4.86-.91Zm15.88.57a1.52,1.52,0,0,1-1.13.42l-4.66-.19a1.54,1.54,0,0,1-1.42-1.6,1.3,1.3,0,0,1,.42-.94,1.51,1.51,0,0,1,1.06-.43h.06l4.67.19h0A1.56,1.56,0,0,1,42,56.28,1.32,1.32,0,0,1,41.58,57.23ZM43.86,52a1.67,1.67,0,0,1-1.2.46l-2-.09h0L36,52.15l-1.78-.08a1.63,1.63,0,0,1-1.52-1.7,1.37,1.37,0,0,1,.45-1,1.62,1.62,0,0,1,1.15-.46h.08l8.4.35A1.66,1.66,0,0,1,44.31,51,1.41,1.41,0,0,1,43.86,52Zm.87-5.58-5.18.08-5.15.09h0A1.8,1.8,0,0,1,33.11,46a1.5,1.5,0,0,1-.46-1.11v-.07a7.12,7.12,0,0,0,.86-1.16,4.22,4.22,0,0,0,2.78,1,3.84,3.84,0,0,0,1.64-.35,2.51,2.51,0,0,0,1.28-1.31L42.86,43h1.82a1.81,1.81,0,0,1,1.28.53,1.49,1.49,0,0,1,.45,1.09,1.77,1.77,0,0,1-1.68,1.78Z" fill="#fff"/><path d="M20.21,45.63a1.18,1.18,0,1,0,1.17,1.17h0A1.17,1.17,0,0,0,20.21,45.63Z" fill="#fff"/></svg>