<svg xmlns="http://www.w3.org/2000/svg" viewBox="0 0 60 60"><path d="M29.9,7.92a1.16,1.16,0,0,0,1.16-1.16V1.56a1.17,1.17,0,0,0-2.33,0v5.2A1.16,1.16,0,0,0,29.9,7.92Z" fill="#fff"/><path d="M58.36,40.41l-2-2.06a3.9,3.9,0,0,0-4.62-.65l-3.88-3.88.19-.19a4,4,0,0,0,0-5.7,4,4,0,0,0-2-1.1,4.23,4.23,0,0,0,.16-1.13A4,4,0,0,0,45,22.84a4.08,4.08,0,0,0-2-1.09,4.28,4.28,0,0,0,.16-1.13,4,4,0,0,0-1.18-2.86,4.05,4.05,0,0,0-2-1.09,4,4,0,0,0-4.31-5.15l-7.68-1.45c-1.17-.22-2.63-.37-3.56.47l-.17.18a4,4,0,0,0-4.25.94,4.06,4.06,0,0,0-1,4,4,4,0,0,0-2,1.09,4,4,0,0,0-1.18,2.85,4.3,4.3,0,0,0,.16,1.14A4,4,0,0,0,13.34,27a4,4,0,0,0-1.55,1,4,4,0,0,0,0,5.71l.19.18L8.1,37.69a3.91,3.91,0,0,0-4.41.77l-2,2a3.87,3.87,0,0,0,0,5.49L4.2,48.57a1.17,1.17,0,1,0,1.65-1.65L3.28,44.36a1.57,1.57,0,0,1,0-2.2l2.06-2a1.56,1.56,0,0,1,1.9-.24.65.65,0,0,0,.15.18,1.27,1.27,0,0,0,.33.24L19.53,52.07a1,1,0,0,0,.23.34,1,1,0,0,0,.33.23,1.52,1.52,0,0,1,.38,1,1.54,1.54,0,0,1-.45,1.1l-2.05,2a1.56,1.56,0,0,1-2.21,0l-2.57-2.57a1.16,1.16,0,0,0-1.64,1.65l2.57,2.57a3.9,3.9,0,0,0,5.49,0l2.06-2a3.88,3.88,0,0,0,1.13-2.75,3.8,3.8,0,0,0-.59-2.06l4.37-4.36v0c.5-.51,1.89-.42,3.24-.32a17.31,17.31,0,0,0,3.06,0l4.78,4.77a3.91,3.91,0,0,0,.66,4.61l2.06,2.06a3.9,3.9,0,0,0,5.49,0L58.36,45.9a3.87,3.87,0,0,0,0-5.49Zm-30.9-28,5,1-3,3A7.69,7.69,0,0,1,27.67,15,5.32,5.32,0,0,1,26,12.37h0s0-.08,0-.11a3.88,3.88,0,0,1,1.51.1Zm-5.91,1a1.73,1.73,0,0,1,2.18-.21,8.27,8.27,0,0,0,2.33,3.6,8.59,8.59,0,0,0,3.36,2.08,1.67,1.67,0,0,1,.3,1A1.71,1.71,0,0,1,29.23,21a1.69,1.69,0,0,1-1.21.49,1.66,1.66,0,0,1-1.21-.5h0l-5.26-5.24a1.73,1.73,0,0,1,0-2.41Zm-3,5.08a1.71,1.71,0,0,1,2.42,0l4.23,4.22A1.71,1.71,0,0,1,22.74,25h0l-3.21-3.21h0l-1-1a1.7,1.7,0,0,1,0-2.41Zm-3.05,5.08a1.71,1.71,0,0,1,2.41,0l3.22,3.22a1.71,1.71,0,0,1-2.42,2.41L17.5,27.93h0l-2-2a1.71,1.71,0,0,1,0-2.42Zm-2,6.1a1.73,1.73,0,0,1,1.22-.49,1.71,1.71,0,0,1,1.21.49L17,30.74A1.69,1.69,0,0,1,17.52,32a1.71,1.71,0,0,1-1.71,1.7,1.68,1.68,0,0,1-1.21-.5L14.46,33h0l-1-1a1.73,1.73,0,0,1,0-2.42ZM37.17,42.81a1.16,1.16,0,0,0-1.65,0l-1,1c-1,1-2.76.86-4.49.74s-3.81-.26-5.06,1l-4.29,4.28L9.91,39.18l3.8-3.79a3.94,3.94,0,0,0,2.1.59,4,4,0,0,0,4-4v0h0a4,4,0,0,0,4-4v0h0a4,4,0,0,0,2.86-1.18A4.09,4.09,0,0,0,28,23.79h0a4,4,0,0,0,3.44-6.14l3.33-3.32a1.69,1.69,0,0,1,.88-.47l.1,0a1.71,1.71,0,0,1,1.45,2.9l-1,1h0L35,18.93a1.16,1.16,0,0,0,1.64,1.64l1-1h0l.16-.16a1.71,1.71,0,0,1,2.41,2.42l-1,1h0L38.07,24a1.17,1.17,0,0,0,1.65,1.65l1.17-1.17a1.71,1.71,0,0,1,2.92,1.21,1.72,1.72,0,0,1-.5,1.21l-2,2a1.17,1.17,0,0,0,.82,2,1.14,1.14,0,0,0,.82-.35l1-1,0,0a1.69,1.69,0,0,1,1.21-.49A1.7,1.7,0,0,1,46.36,32l-1,1h0l-1.61,1.61a1.16,1.16,0,0,0,.83,2,1.14,1.14,0,0,0,.82-.34l.79-.78,3.76,3.76L39.21,49.94l-3.85-3.83a5,5,0,0,0,.77-.62l1-1a1.18,1.18,0,0,0,0-1.65Zm19.55,1.44L44.24,56.72a1.58,1.58,0,0,1-1.1.45,1.54,1.54,0,0,1-1.1-.45L40,54.66a1.53,1.53,0,0,1,0-2.19L52.46,40a1.57,1.57,0,0,1,2.2,0l2.06,2a1.58,1.58,0,0,1,.45,1.1A1.54,1.54,0,0,1,56.72,44.25Z" fill="#fff"/><path d="M14.43,6.94a1.16,1.16,0,0,0,.83.34,1.2,1.2,0,0,0,.82-.34,1.18,1.18,0,0,0,0-1.65L11.83,1.05A1.16,1.16,0,0,0,10.19,2.7Z" fill="#fff"/><path d="M44.54,7.28a1.18,1.18,0,0,0,.82-.34L49.6,2.7A1.16,1.16,0,0,0,48,1.05L43.72,5.29a1.17,1.17,0,0,0,0,1.65A1.21,1.21,0,0,0,44.54,7.28Z" fill="#fff"/><path d="M7.66,50.49a1.17,1.17,0,0,0,0,1.65h0a1.16,1.16,0,1,0,0-1.65Z" fill="#fff"/><path d="M40,41.13a1.24,1.24,0,0,0,.53-.12,1.17,1.17,0,1,0-1-2.08h0a1.16,1.16,0,0,0,.52,2.2Z" fill="#fff"/></svg>