<svg xmlns="http://www.w3.org/2000/svg" viewBox="0 0 60 60"><path d="M21.36,36.83l1.81,1.81a1.61,1.61,0,0,0,2.26,0l1.14-1.13.55.23v1.6a1.6,1.6,0,0,0,1.6,1.6h2.56a1.6,1.6,0,0,0,1.6-1.6v-1.6l.55-.23,1.14,1.13a1.61,1.61,0,0,0,2.26,0l1.81-1.81a1.61,1.61,0,0,0,0-2.26l-1.13-1.14c.08-.18.16-.36.23-.55h1.6a1.6,1.6,0,0,0,1.6-1.6V28.72a1.6,1.6,0,0,0-1.6-1.6h-1.6c-.07-.19-.15-.37-.23-.55l1.13-1.14a1.61,1.61,0,0,0,0-2.26l-1.81-1.81a1.61,1.61,0,0,0-2.26,0l-1.14,1.13-.55-.23v-1.6a1.6,1.6,0,0,0-1.6-1.6H28.72a1.6,1.6,0,0,0-1.6,1.6v1.6l-.55.23-1.14-1.13a1.61,1.61,0,0,0-2.26,0l-1.81,1.81a1.61,1.61,0,0,0,0,2.26l1.13,1.14c-.08.18-.16.36-.23.55h-1.6a1.6,1.6,0,0,0-1.6,1.6v2.56a1.6,1.6,0,0,0,1.6,1.6h1.6c.07.19.15.37.23.55l-1.13,1.14A1.61,1.61,0,0,0,21.36,36.83Zm1-5.71H20.82V28.88h1.55a1.61,1.61,0,0,0,1.51-1.06,5.39,5.39,0,0,1,.25-.6,1.6,1.6,0,0,0-.32-1.82l-1.09-1.1,1.58-1.58,1.1,1.09a1.6,1.6,0,0,0,1.82.32,5.39,5.39,0,0,1,.6-.25,1.61,1.61,0,0,0,1.06-1.51V20.82h2.24v1.55a1.61,1.61,0,0,0,1.06,1.51,5.39,5.39,0,0,1,.6.25,1.6,1.6,0,0,0,1.82-.32l1.1-1.09,1.58,1.58-1.09,1.1a1.6,1.6,0,0,0-.32,1.82,5.39,5.39,0,0,1,.25.6,1.61,1.61,0,0,0,1.51,1.06h1.55v2.24H37.63a1.61,1.61,0,0,0-1.51,1.06,5.39,5.39,0,0,1-.25.6,1.6,1.6,0,0,0,.32,1.82l1.09,1.1L35.7,37.28l-1.1-1.09a1.6,1.6,0,0,0-1.82-.32,5.39,5.39,0,0,1-.6.25,1.61,1.61,0,0,0-1.06,1.51v1.55H28.88V37.63a1.61,1.61,0,0,0-1.06-1.51,5.39,5.39,0,0,1-.6-.25,1.6,1.6,0,0,0-1.82.32l-1.1,1.09L22.72,35.7l1.09-1.1a1.6,1.6,0,0,0,.32-1.82,5.39,5.39,0,0,1-.25-.6,1.61,1.61,0,0,0-1.51-1.06Z" fill="#fff"/><path d="M30,34.69A4.69,4.69,0,1,0,25.31,30,4.69,4.69,0,0,0,30,34.69Zm0-7.62A2.93,2.93,0,1,1,27.07,30,2.93,2.93,0,0,1,30,27.07Z" fill="#fff"/><path d="M11,22.08A11,11,0,1,0,0,11,11,11,0,0,0,11,22.08Zm5.88-3.86a9.28,9.28,0,0,1-11.76,0,3,3,0,0,1,3-3.09h5.7a3,3,0,0,1,3,3.09ZM11,1.76a9.28,9.28,0,0,1,7.39,14.89,4.79,4.79,0,0,0-4.54-3.27H8.19a4.79,4.79,0,0,0-4.54,3.27A9.28,9.28,0,0,1,11,1.76Z" fill="#fff"/><path d="M49,37.92A11,11,0,1,0,60,49,11,11,0,0,0,49,37.92Zm5.88,18.21a9.24,9.24,0,0,1-11.76,0,3,3,0,0,1,3-3.08h5.7A3,3,0,0,1,54.84,56.13Zm1.51-1.57a4.8,4.8,0,0,0-4.54-3.27h-5.7a4.8,4.8,0,0,0-4.54,3.27A9.18,9.18,0,0,1,39.68,49a9.28,9.28,0,0,1,18.56,0A9.18,9.18,0,0,1,56.35,54.56Z" fill="#fff"/><path d="M14.08,10.66a4.3,4.3,0,0,0,0-6.08h0a4.3,4.3,0,1,0,0,6.08ZM9.25,5.83a2.54,2.54,0,0,1,3.59,0h0a2.54,2.54,0,1,1-3.59,0Z" fill="#fff"/><path d="M8,48.58a4.3,4.3,0,0,0,6.08-6.08h0A4.3,4.3,0,0,0,8,48.58Zm1.25-4.83a2.54,2.54,0,1,1,0,3.59A2.54,2.54,0,0,1,9.25,43.75Z" fill="#fff"/><path d="M45.92,4.58a4.3,4.3,0,1,0,6.08,0h0a4.32,4.32,0,0,0-6.08,0Zm4.83,4.84a2.54,2.54,0,1,1,0-3.59h0A2.52,2.52,0,0,1,50.75,9.42Z" fill="#fff"/><path d="M52,42.5a4.3,4.3,0,1,0,0,6.08,4.32,4.32,0,0,0,0-6.08Zm-1.25,4.84a2.54,2.54,0,1,1,0-3.59A2.54,2.54,0,0,1,50.75,47.34Z" fill="#fff"/><path d="M35.53,11.92a.88.88,0,1,0,0-1.76H24.47a.88.88,0,1,0,0,1.76Z" fill="#fff"/><path d="M24.47,48.08a.88.88,0,1,0,0,1.76H35.53a.88.88,0,1,0,0-1.76Z" fill="#fff"/><path d="M11.92,35.53V24.47a.88.88,0,0,0-1.76,0V35.53a.88.88,0,0,0,1.76,0Z" fill="#fff"/><path d="M49.84,35.53V24.47a.88.88,0,0,0-1.76,0V35.53a.88.88,0,0,0,1.76,0Z" fill="#fff"/><path d="M58.07,9.25a.88.88,0,1,0,1.72-.34,11,11,0,1,0,0,4.46A.88.88,0,1,0,58,13a9.07,9.07,0,0,1-1.68,3.64,4.8,4.8,0,0,0-4.54-3.26h-5.7a4.79,4.79,0,0,0-4.54,3.27,9.28,9.28,0,1,1,16.5-7.4Zm-12,5.88h5.7a3,3,0,0,1,3,3v.05a9.26,9.26,0,0,1-11.76,0A3,3,0,0,1,46.11,15.13Z" fill="#fff"/><path d="M11,60a11,11,0,0,0,2.23-21.86.89.89,0,0,0-1,.69.87.87,0,0,0,.69,1,9.31,9.31,0,0,1,7.4,9.1,9.18,9.18,0,0,1-1.89,5.6,4.8,4.8,0,0,0-4.54-3.27H8.19a4.8,4.8,0,0,0-4.54,3.27A9.18,9.18,0,0,1,1.76,49a9.31,9.31,0,0,1,7.41-9.1.87.87,0,0,0,.68-1,.89.89,0,0,0-1-.69A11,11,0,0,0,11,60Zm-2.85-7h5.7a3,3,0,0,1,3,3.08,9.24,9.24,0,0,1-11.76,0A3,3,0,0,1,8.19,53.05Z" fill="#fff"/></svg>