<svg xmlns="http://www.w3.org/2000/svg" viewBox="0 0 60 60"><path d="M60,25.16H57.83l-3.25,1.71a4.66,4.66,0,0,0-1.15-.48l-4.08-1v-.46a6.79,6.79,0,0,0,2.91-5.56V17.66a7,7,0,0,0-6.57-7,4.87,4.87,0,0,0-.54,0L46.2,8.18,41.08,3.06l-3,2a16.68,16.68,0,0,0-3.63-1.51L33.69,0H26.31l-.74,3.53A16.17,16.17,0,0,0,21.94,5l-3-2L13.8,8.18l1,2.48h-.12a6.78,6.78,0,0,0-7,6.77v1.93a6.79,6.79,0,0,0,2.91,5.56v.46L8,26,3.17,23.23H0V43.28l9.52,3.17h1.85l.24-.81,2.91,1.75a3,3,0,0,0,2.91,2.92,3,3,0,0,0,2.9,2.9,3,3,0,0,0,2.91,2.91,3,3,0,0,0,3,2.91,3.09,3.09,0,0,0,1.69-.52l.86.75a2.92,2.92,0,0,0,1.95.74h.18a3,3,0,0,0,2.94-2.91,2.94,2.94,0,0,0,2.9-2.9,2.94,2.94,0,0,0,2.9-2.91,3,3,0,0,0,2.91-3c0-.09,0-.19,0-.29L60,39.31Zm-9.68-7.5v1.69a4.86,4.86,0,0,1-2.42,4.19l-.48.28v3.06l4.84,1.21-10.65,5.6v-2.6a4.83,4.83,0,0,0-1.38-3.38l3.32-.83V23.82l-.48-.28a4.84,4.84,0,0,1-2.42-4.19V17.42a4.85,4.85,0,0,1,5-4.84A5,5,0,0,1,50.32,17.66ZM31.46,32.93l-4.38-1.4a12,12,0,0,0-6.2-.28l-.56.12v-.28a2.9,2.9,0,0,1,2.2-2.82l5.54-1.39V23.82l-.48-.28a4.86,4.86,0,0,1-2.42-4.19V17.42a4.85,4.85,0,0,1,5-4.84,5,5,0,0,1,4.69,5.08v1.69a4.86,4.86,0,0,1-2.42,4.19l-.49.28v3.06l5.54,1.39a2.9,2.9,0,0,1,2.2,2.82v3.62l-.24.13h-.59l-6-1.7A6.42,6.42,0,0,0,31.46,32.93ZM20.54,14.48a10.64,10.64,0,0,1,18.88-.07,6.7,6.7,0,0,0-.71,3v1.93a6.81,6.81,0,0,0,2.9,5.56v.46l-3.87,1-3.87-1v-.46a6.81,6.81,0,0,0,2.9-5.56V17.66a6.94,6.94,0,0,0-6.56-7,6.76,6.76,0,0,0-7,6.77v1.93a6.81,6.81,0,0,0,2.9,5.56v.46l-3.87,1-3.87-1v-.46a6.81,6.81,0,0,0,2.9-5.56V17.66A7.09,7.09,0,0,0,20.54,14.48ZM16.09,8.63l3.09-3.09L21.9,7.31,22.42,7a14.76,14.76,0,0,1,4.19-1.74l.6-.14.67-3.17h4.24l.67,3.17.6.14A14.76,14.76,0,0,1,37.58,7l.52.32,2.72-1.77,3.09,3.09-1.1,2.57a6.57,6.57,0,0,0-2,1.36,1.36,1.36,0,0,0-.12.12,12.56,12.56,0,0,0-21.34.05,6.87,6.87,0,0,0-2.14-1.51ZM12.58,26.88V23.82l-.48-.28a4.84,4.84,0,0,1-2.42-4.19V17.42a4.85,4.85,0,0,1,5-4.84,5,5,0,0,1,4.68,5.08v1.69a4.84,4.84,0,0,1-2.42,4.19l-.48.28v3.06l3.32.83a4.83,4.83,0,0,0-1.38,3.38v.71l-3,.67.08-.27,0-1.79-5.1-3ZM1.94,25.16h.7l7,4.06L6.09,43.27,1.94,41.88ZM9.83,44.52l-1.9-.64,3.41-13.64,2.21,1.28v.28L9.92,44.52Zm6.62,2.78a1.14,1.14,0,0,1,.32-.77l1.7-1.7a1.09,1.09,0,0,1,.77-.31,1.08,1.08,0,0,1,1.08,1.08,1.09,1.09,0,0,1-.31.77l-1.71,1.7a1.08,1.08,0,0,1-1.85-.77Zm2.9,2.91a1.1,1.1,0,0,1,.32-.77l1.7-1.7a1.09,1.09,0,1,1,1.54,1.53L21.21,51a1.07,1.07,0,0,1-.77.32A1.09,1.09,0,0,1,19.35,50.21Zm2.91,2.9a1.06,1.06,0,0,1,.32-.77l1.7-1.7a1.08,1.08,0,1,1,1.53,1.53l-1.7,1.71a1.09,1.09,0,0,1-.77.31A1.08,1.08,0,0,1,22.26,53.11Zm4,4A1.09,1.09,0,0,1,25.16,56a1.14,1.14,0,0,1,.32-.77l1.7-1.7a1.09,1.09,0,0,1,.77-.31A1.08,1.08,0,0,1,29,54.31a1.06,1.06,0,0,1-.32.77L27,56.78A1.09,1.09,0,0,1,26.25,57.1Zm4.68,1h-.18a1,1,0,0,1-.67-.25l-.72-.64.72-.72a3,3,0,0,0,.61-.9l.88.73a1,1,0,0,1-.64,1.78Zm8.67-8.71h-.16a1,1,0,0,1-.67-.24l-5.25-4.37-1.24,1.49,5.1,4.24a1,1,0,0,1,.36.78,1,1,0,0,1-1,1h-.21a1,1,0,0,1-.64-.24l-5.26-4.38-1.24,1.49,5.1,4.25a1,1,0,0,1,.36.77,1,1,0,0,1-1,1,1.6,1.6,0,0,1-1-.37L30.65,53a3,3,0,0,0-2.6-1.69,3,3,0,0,0-2.9-2.9,3,3,0,0,0-2.9-2.91,3,3,0,0,0-5.15-2l-1.7,1.7a3,3,0,0,0-.27.33l-3-1.79,2.6-9.12,6.54-1.45a9.94,9.94,0,0,1,5.19.24l1.42.45-4.83,2.42a3.22,3.22,0,0,0-1.79,2.9v.19a3.24,3.24,0,0,0,4.91,2.78L29.8,40a2,2,0,0,1,2.32.22l8.18,7.36a1,1,0,0,1-.7,1.81ZM58.06,38.11l-16.3,8.15-.17-.16-8.17-7.36a3.92,3.92,0,0,0-2.61-1,3.82,3.82,0,0,0-2,.56L25.2,40.46a1.29,1.29,0,0,1-2-1.12v-.19A1.29,1.29,0,0,1,24,38l5.4-2.7a4.19,4.19,0,0,1,3-.28l6.08,1.74,1.48,0,18.14-9.55Z" fill="#fff"/></svg>