<svg xmlns="http://www.w3.org/2000/svg" viewBox="0 0 60 60"><path d="M43,25.59l-1.29-1.3-1.42,1.42,2,2a1,1,0,0,0,1.42,0l4-4-1.42-1.42Z" fill="#fff"/><path d="M43,33.59l-1.29-1.3-1.42,1.42,2,2a1,1,0,0,0,1.42,0l4-4-1.42-1.42Z" fill="#fff"/><path d="M43,42.59l-1.29-1.3-1.42,1.42,2,2a1,1,0,0,0,1.42,0l4-4-1.42-1.42Z" fill="#fff"/><path d="M55,19H48V9a3,3,0,0,0-3-3H35V5a3,3,0,0,0-3-3H30V1a1,1,0,0,0-1-1H21a1,1,0,0,0-1,1V2H18a3,3,0,0,0-3,3V6H5A3,3,0,0,0,2,9V57a3,3,0,0,0,3,3H45a3,3,0,0,0,3-3V49h7a3,3,0,0,0,3-3V22A3,3,0,0,0,55,19ZM30,4h2a1,1,0,0,1,1,1V6H30Zm0,4H45a1,1,0,0,1,1,1V19H45V10a1,1,0,0,0-1-1H30ZM22,2h6v8a1,1,0,0,1-1,1H23a1,1,0,0,1-1-1Zm-1.82,9A3,3,0,0,0,23,13h4a3,3,0,0,0,2.82-2H43v8H39a3,3,0,0,0-3,3V46a3,3,0,0,0,3,3h4v6H7V11ZM17,5a1,1,0,0,1,1-1h2V6H17ZM46,57a1,1,0,0,1-1,1H5a1,1,0,0,1-1-1V9A1,1,0,0,1,5,8H20V9H6a1,1,0,0,0-1,1V56a1,1,0,0,0,1,1H44a1,1,0,0,0,1-1V49h1ZM56,46a1,1,0,0,1-1,1H39a1,1,0,0,1-1-1V22a1,1,0,0,1,1-1H55a1,1,0,0,1,1,1Z" fill="#fff"/><path d="M48,25h6v2H48Z" fill="#fff"/><path d="M48,33h6v2H48Z" fill="#fff"/><path d="M48,42h6v2H48Z" fill="#fff"/><path d="M24,21h6a1,1,0,0,0,1-1V19h3V17H31V16a1,1,0,0,0-1-1H24a1,1,0,0,0-1,1v1H17V16a1,1,0,0,0-1-1H10a1,1,0,0,0-1,1v4a1,1,0,0,0,1,1h2v4H10a1,1,0,0,0-1,1v4a1,1,0,0,0,1,1h2v4H10a1,1,0,0,0-1,1v4a1,1,0,0,0,1,1h2v4H10a1,1,0,0,0-1,1v4a1,1,0,0,0,1,1h6a1,1,0,0,0,1-1V49h6v1a1,1,0,0,0,1,1h6a1,1,0,0,0,1-1V49h3V47H31V46a1,1,0,0,0-1-1H24a1,1,0,0,0-1,1v1H17V46a1,1,0,0,0-1-1H14V41h2a1,1,0,0,0,1-1V36a1,1,0,0,0-1-1H14V31h2a1,1,0,0,0,1-1V29h6v1a1,1,0,0,0,1,1h2v4H24a1,1,0,0,0-1,1v4a1,1,0,0,0,1,1h6a1,1,0,0,0,1-1V39h3V37H31V36a1,1,0,0,0-1-1H28V31h2a1,1,0,0,0,1-1V29h3V27H31V26a1,1,0,0,0-1-1H24a1,1,0,0,0-1,1v1H17V26a1,1,0,0,0-1-1H14V21h2a1,1,0,0,0,1-1V19h6v1A1,1,0,0,0,24,21Zm1-4h4v2H25Zm0,30h4v2H25Zm4-10v2H25V37ZM25,27h4v2H25ZM15,47v2H11V47Zm0-10v2H11V37Zm0-10v2H11V27Zm0-8H11V17h4Z" fill="#fff"/></svg>