<svg xmlns="http://www.w3.org/2000/svg" viewBox="0 0 175 36">
  <path d="M9.09,6.21v4.9h3.42a6.13,6.13,0,0,1-.33.68,10,10,0,0,1-4.33,3.69l1,1.57a10.33,10.33,0,0,0,4.57-3.84,11.72,11.72,0,0,0,.8-1.66V14.8a2.73,2.73,0,0,0,.46,1.83,1.93,1.93,0,0,0,1.47.5h3.08a1.91,1.91,0,0,0,1.36-.4,6.28,6.28,0,0,0,.92-2.61l-1.92-.41a4.85,4.85,0,0,1-.19,1.54.63.63,0,0,1-.57.31H16.66c-.33,0-.5-.17-.5-.52V11.11h3.75V5.48h-3a15.15,15.15,0,0,0,1.8-2V2.23H13c.2-.28.39-.59.59-.93L12.11.38A14.57,14.57,0,0,1,10.16,3,9.37,9.37,0,0,1,7.5,5.08l.92,1.59Zm4,3.31H10.94V7.07h2.68A20.17,20.17,0,0,1,13.08,9.52Zm5-2.45V9.52H14.9c.19-.74.37-1.56.52-2.45ZM11.5,4.2a4.81,4.81,0,0,0,.36-.4h4.32a16.87,16.87,0,0,1-1.95,1.68H10.06A12.12,12.12,0,0,0,11.5,4.2Z" fill="#fff"/>
  <path d="M18.06,14.2l1.54-1a23.33,23.33,0,0,0-1.54-1.93L16.83,12A17.14,17.14,0,0,1,18.06,14.2Z" fill="#fff"/>
  <path d="M5.49,5.16,6.93,3.72A23.48,23.48,0,0,0,4.06.86L2.74,2.15A16.9,16.9,0,0,1,5.49,5.16Z" fill="#fff"/>
  <path d="M10.35,18a6.76,6.76,0,0,1-2-.59,7.17,7.17,0,0,1-2-1.76,16.74,16.74,0,0,0,1.06-3.39V10.93H4.78A26.83,26.83,0,0,0,7.42,7.24V5.83H1.88V7.51H5.15a26.31,26.31,0,0,1-2.74,3.61v1.57h3a11.31,11.31,0,0,1-1.3,3.1,13.06,13.06,0,0,1-2.34,2.93l1.4,1.54A21.66,21.66,0,0,0,5.43,17.2a6.33,6.33,0,0,0,2.16,1.88,10,10,0,0,0,2.85.76c1.31.16,5,.25,10.92.25l.23-2a47.6,47.6,0,0,1-5,.19A59.09,59.09,0,0,1,10.35,18Z" fill="#fff"/>
  <path d="M31.82,11.11A42,42,0,0,0,28.4,7.47v-1h2.68V4.74H28.4V.64H26.64v4.1H23.52V6.48h2.89a25.49,25.49,0,0,1-3.21,6.39L24,15.12a20.4,20.4,0,0,0,2.47-4.8,2.8,2.8,0,0,0,.13-.38v10.4H28.4V9.58c.64.8,1.42,1.87,2.33,3.21Z" fill="#fff"/>
  <path d="M31.73,10.2a18.24,18.24,0,0,0,2.14-3.63,33.52,33.52,0,0,0,1.47-4.51l-1.85-.67a20.65,20.65,0,0,1-1.23,4,19.48,19.48,0,0,1-2.1,3.34Z" fill="#fff"/>
  <path d="M35.86,1.62V3.38h2.41A18.45,18.45,0,0,0,39.7,7.15a15.55,15.55,0,0,0,2,3.13L43,8.52a17,17,0,0,1-3.29-6.9Z" fill="#fff"/>
  <path d="M37.62,12.79a38.37,38.37,0,0,1,1.58,3.5,35.94,35.94,0,0,1-5.37.86,59.07,59.07,0,0,0,3.46-8.91l-2-.65a58.55,58.55,0,0,1-3.61,9.75c-.45,0-.92.05-1.4.06l.25,2a68.89,68.89,0,0,0,9.26-1.55c.25.68.49,1.39.69,2.13l1.93-.52a41,41,0,0,0-3-7.19Z" fill="#fff"/>
  <path d="M46.07,1.11v11a29,29,0,0,1-.23,3.44A12.46,12.46,0,0,1,44.75,19l1.59,1.43a18.38,18.38,0,0,0,1.26-4.28q.19-1.32.27-2.64l.8,1a23.27,23.27,0,0,0,1.93-1.77v4.81c0,.44-.19.67-.57.67l-1.76-.11L48.75,20H50.6a1.8,1.8,0,0,0,1.49-.56,2.4,2.4,0,0,0,.46-1.56V1.11H46.07ZM47.92,3H50.6V7.49a18.35,18.35,0,0,0-1.26-2.41l-1.42.46Zm0,9.14V5.73a20.76,20.76,0,0,1,1.42,3l1.26-.57v2.05a16.54,16.54,0,0,1-2.71,2.48A5.41,5.41,0,0,0,47.92,12.12Z" fill="#fff"/>
  <path d="M56.34,6.4A14.37,14.37,0,0,0,56.72,3h3V6.67a2.19,2.19,0,0,0,.56,1.68A2.74,2.74,0,0,0,62,8.83h2.29V7H62.44a.67.67,0,0,1-.75-.76V1.11h-7a26.74,26.74,0,0,1-.23,4.63,10.29,10.29,0,0,1-1.62,2.61l1.53,1.32A9.17,9.17,0,0,0,56.34,6.4Z" fill="#fff"/>
  <path d="M62.92,11.37V9.84H53.28v1.84h7.46a9.38,9.38,0,0,1-2.05,3.73l-.31.32A9.17,9.17,0,0,1,56,12l-1.66.48a12.28,12.28,0,0,0,2.47,4.34,17.53,17.53,0,0,1-4.15,1.72l1.16,1.82a17.87,17.87,0,0,0,4.71-2.16,22.33,22.33,0,0,0,5,2.25l1.07-1.91a31,31,0,0,1-4.38-1.74A13.09,13.09,0,0,0,62.92,11.37Z" fill="#fff"/>
  <path d="M70.66.55a21.59,21.59,0,0,1-2,4.84A37.16,37.16,0,0,1,66.22,9l.67,2.37c.7-.84,1.34-1.69,1.93-2.54V20.17h1.92V5.62A36.65,36.65,0,0,0,72.42,1.3Z" fill="#fff"/>
  <path d="M78.38,1.11V3H81a18.17,18.17,0,0,0,1.58,3.71,14.56,14.56,0,0,0,1,1.66H73.79a13.41,13.41,0,0,0,1.67-2.41,31.29,31.29,0,0,0,1.89-4.47L75.42.7a18,18,0,0,1-1.63,4,20.07,20.07,0,0,1-2.73,3.34l1.68,1.44.75-.83v1.59h2.87A16,16,0,0,1,75,15,12.13,12.13,0,0,1,72,18.64l1.37,1.7A12.63,12.63,0,0,0,76.8,16a21.41,21.41,0,0,0,1.49-5.72h3.58c-.16,4.53-.41,6.94-.73,7.25a1.21,1.21,0,0,1-1.19.63c-.19,0-.8-.06-1.85-.19l.36,2.12a17,17,0,0,0,1.76.08,3.06,3.06,0,0,0,2-.67,2.62,2.62,0,0,0,1-1.57q.38-.72.67-9.18a10.93,10.93,0,0,0,.86,1l1.32-1.84a16,16,0,0,1-3.61-6.8Z" fill="#fff"/>
  <path d="M98.42,1,96.22.7c-.32.82-.66,1.58-1,2.28H88.08V4.91h6A10.51,10.51,0,0,1,93,6.38a27.89,27.89,0,0,1-5.47,4.82l1.32,1.68A34.66,34.66,0,0,0,92,10.49v9.77H94V15.81h9.42v2a.53.53,0,0,1-.59.61l-3.29-.08.44,1.84h3.44a1.83,1.83,0,0,0,2.09-2V6.76H95.38c.41-.58.82-1.19,1.21-1.85H107.3V3H97.6A20.87,20.87,0,0,0,98.42,1Zm5,13.1H94V12h9.42Zm0-5.45v1.76H94V8.6Z" fill="#fff"/>
  <path d="M115.9,15.27a3.76,3.76,0,0,0,.69-2.39,6.59,6.59,0,0,0-.42-2.08A14.33,14.33,0,0,0,115,8.16q.9-2.74,1.59-5.18V1.47H109.9V20.34h2v-17h2.69A44.83,44.83,0,0,1,113,8.43a12.23,12.23,0,0,1,1.29,2.62,5.53,5.53,0,0,1,.3,1.83q0,.8-.36,1a1.35,1.35,0,0,1-1,.3,7.61,7.61,0,0,1-1-.08l.59,2C114.41,16.13,115.44,15.84,115.9,15.27Z" fill="#fff"/>
  <path d="M125.08,15.1a10.88,10.88,0,0,0,3.33-2.5l-1.49-1.4a10.76,10.76,0,0,1-2.83,2.33,13.68,13.68,0,0,1-1-2.86h4.13V1.39h-10V17.9c-.59.1-1.17.19-1.76.26l.25,2.1a42.66,42.66,0,0,0,7-1.93v-2a26.86,26.86,0,0,1-3.52,1.17V10.67h2a14.08,14.08,0,0,0,2.12,5.22,14.8,14.8,0,0,0,4.76,4.45l1.09-1.84A12.43,12.43,0,0,1,125.08,15.1ZM119.19,3.15h6.12V5.08h-6.12Zm0,5.76V6.84h6.12V8.91Z" fill="#fff"/>
  <path d="M135.73,7a29.83,29.83,0,0,0,2-4.68l-2.09-.75A20.82,20.82,0,0,1,134,5.77a21.08,21.08,0,0,1-2.86,3.5l1.76,1.49A17.53,17.53,0,0,0,135.73,7Z" fill="#fff"/>
  <path d="M145.54,1.11h-6V3h4.34a17.59,17.59,0,0,0,2.14,4.19,17.85,17.85,0,0,0,3,3.42l1.4-2A16.84,16.84,0,0,1,145.54,1.11Z" fill="#fff"/>
  <path d="M143,12.12a43.79,43.79,0,0,1,2.14,4.28q-3.79.38-8.49.52a50.66,50.66,0,0,0,4.15-8.84l-2.24-.84a54.87,54.87,0,0,1-4.4,9.77l-2.41,0,.35,2.2q9.48-.51,13.8-1.07c.28.7.54,1.42.79,2.16l2.35-.61a47.79,47.79,0,0,0-4-8.3Z" fill="#fff"/>
  <path d="M152.67,1.62V3.55h15.74V17.32c0,.6-.28.91-.84.92l-2.91-.08.4,2.1H168a2.87,2.87,0,0,0,1.93-.55,2.1,2.1,0,0,0,.67-1.74V1.62Z" fill="#fff"/>
  <rect x="152.92" y="5.48" width="11.88" height="1.85" fill="#fff"/>
  <path d="M153.51,16.65h10.62V9.27H153.51Zm2.09-5.53H162v3.69H155.6Z" fill="#fff"/>
  <path d="M1,23.67H3.72l1,5.21,1.44-5.21H8.87l1.45,5.21,1-5.21H14L12,33H9.15L7.51,27.12,5.88,33H3.06L1,23.67Zm19.74,7.79H17.43L17,33H14l3.51-9.33h3.14L24.19,33h-3l-.45-1.54Zm-.61-2-1-3.36-1,3.36Zm3.45-5.77V26H26.5v7h2.88V26h2.94v-2.3Zm9.56,6.24,2.75-.17a2.18,2.18,0,0,0,.36,1,1.51,1.51,0,0,0,1.27.56,1.37,1.37,0,0,0,1-.29.84.84,0,0,0,.34-.67.87.87,0,0,0-.32-.65A3.66,3.66,0,0,0,37,29.17,6.24,6.24,0,0,1,34.29,28a2.29,2.29,0,0,1-.82-1.8,2.44,2.44,0,0,1,.42-1.36,2.83,2.83,0,0,1,1.25-1,6,6,0,0,1,2.3-.36,4.74,4.74,0,0,1,2.73.66,2.91,2.91,0,0,1,1.11,2.12l-2.71.16a1.52,1.52,0,0,0-.46-.92,1.46,1.46,0,0,0-1-.28,1.16,1.16,0,0,0-.75.21.65.65,0,0,0-.26.52.52.52,0,0,0,.21.4,2.37,2.37,0,0,0,1,.34,11.67,11.67,0,0,1,2.7.83,2.88,2.88,0,0,1,1.2,1A2.69,2.69,0,0,1,41.59,30a2.94,2.94,0,0,1-.5,1.65,3,3,0,0,1-1.39,1.15,5.41,5.41,0,0,1-2.24.4,4.63,4.63,0,0,1-3.3-.92,3.62,3.62,0,0,1-1-2.33Zm9.56-1.57a4.41,4.41,0,0,1,4.81-4.83,4.88,4.88,0,0,1,3.59,1.25,4.7,4.7,0,0,1,1.26,3.5,5.68,5.68,0,0,1-.55,2.68,4,4,0,0,1-1.59,1.63,5.22,5.22,0,0,1-2.59.59A6,6,0,0,1,45,32.65a3.92,3.92,0,0,1-1.67-1.59,5.24,5.24,0,0,1-.64-2.72Zm2.88,0a3.13,3.13,0,0,0,.52,2,1.79,1.79,0,0,0,1.43.62A1.76,1.76,0,0,0,49,30.39a3.43,3.43,0,0,0,.51-2.17,2.88,2.88,0,0,0-.53-1.92,1.82,1.82,0,0,0-1.44-.61,1.76,1.76,0,0,0-1.4.62,3.14,3.14,0,0,0-.53,2Zm8.35-4.68h2.7l3.51,5.16V23.67h2.72V33H60.12l-3.5-5.13V33H53.91V23.67Zm15.19,0h5.4a2.91,2.91,0,0,1,2.07.67A2.15,2.15,0,0,1,77.29,26a2.12,2.12,0,0,1-.51,1.42,2.32,2.32,0,0,1-1,.62,2.6,2.6,0,0,1,1.48.83,2.29,2.29,0,0,1,.48,1.48,2.61,2.61,0,0,1-.34,1.31,2.51,2.51,0,0,1-.92.91,3,3,0,0,1-1.1.31c-.65.08-1.08.13-1.29.13h-5V23.67ZM72,27.33h1.25a1.4,1.4,0,0,0,.94-.24.83.83,0,0,0,.27-.67.77.77,0,0,0-.27-.63,1.36,1.36,0,0,0-.92-.23H72v1.77ZM72,31h1.47a1.64,1.64,0,0,0,1-.26.91.91,0,0,0,.31-.71.81.81,0,0,0-.31-.67,1.73,1.73,0,0,0-1.06-.25H72V31Zm7.22-7.32H87v2H82.12v1.48H86.6v1.91H82.12v1.83h5V33H79.23V23.67Zm9.41,0h2.89v7H96V33H88.64V23.67Zm8.7,0h2.88v7h4.5V33H97.34V23.67Zm19.25,5.51,2.53.77a4.52,4.52,0,0,1-.81,1.77A3.41,3.41,0,0,1,117,32.8a5.11,5.11,0,0,1-2.06.36,6.05,6.05,0,0,1-2.48-.44,3.87,3.87,0,0,1-1.67-1.56,5.23,5.23,0,0,1-.7-2.85,4.86,4.86,0,0,1,1.23-3.56,4.68,4.68,0,0,1,3.49-1.24,4.79,4.79,0,0,1,2.77.71,4.26,4.26,0,0,1,1.5,2.19l-2.55.57a2.1,2.1,0,0,0-.28-.63,1.79,1.79,0,0,0-2.88.1,3.43,3.43,0,0,0-.39,1.84,3.51,3.51,0,0,0,.47,2.13,1.61,1.61,0,0,0,1.32.58,1.59,1.59,0,0,0,1.25-.47,2.74,2.74,0,0,0,.62-1.35Zm3.56-.84a4.86,4.86,0,0,1,1.27-3.56A4.79,4.79,0,0,1,125,23.51a4.9,4.9,0,0,1,3.59,1.25,4.7,4.7,0,0,1,1.26,3.5,5.8,5.8,0,0,1-.55,2.68,4,4,0,0,1-1.59,1.63,5.26,5.26,0,0,1-2.6.59,5.89,5.89,0,0,1-2.61-.51,3.89,3.89,0,0,1-1.68-1.59,5.34,5.34,0,0,1-.64-2.72Zm2.89,0a3.13,3.13,0,0,0,.52,2A1.79,1.79,0,0,0,125,31a1.76,1.76,0,0,0,1.44-.61,3.49,3.49,0,0,0,.51-2.17,2.82,2.82,0,0,0-.54-1.92,1.79,1.79,0,0,0-1.44-.61,1.77,1.77,0,0,0-1.4.62,3.14,3.14,0,0,0-.52,2Zm7.83,2h2.77V33h-2.77V30.4Zm4.34,0H138v2.14a3.2,3.2,0,0,1-.49,1.86,4.09,4.09,0,0,1-1.68,1.2l-.6-1.13a2.82,2.82,0,0,0,1-.69,1.34,1.34,0,0,0,.31-.8h-1.32V30.42Zm8.85-6.75h2.88v7h4.5V33h-7.38V23.67Zm7.38,0V26h2.93v7h2.89V26h2.94v-2.3Zm10.1,0h4.28a5.12,5.12,0,0,1,2.05.34,3.34,3.34,0,0,1,1.29,1,4.17,4.17,0,0,1,.74,1.49,7.07,7.07,0,0,1,.22,1.81,6.21,6.21,0,0,1-.34,2.32,3.76,3.76,0,0,1-.94,1.38,3.06,3.06,0,0,1-1.3.74,6.66,6.66,0,0,1-1.72.26h-4.28V23.67Zm2.88,2.11v5.1h.71a3,3,0,0,0,1.28-.2,1.36,1.36,0,0,0,.6-.7,4.27,4.27,0,0,0,.22-1.62,3.15,3.15,0,0,0-.48-2,2,2,0,0,0-1.61-.55Zm6.83,4.62H174V33h-2.77Z" fill="#fff"/>
</svg>