<svg width="184" height="184" viewBox="0 0 184 184" fill="none" xmlns="http://www.w3.org/2000/svg">
<path d="M172.5 66.125H120.75C115.995 66.125 112.125 69.9947 112.125 74.75V109.25C112.125 114.005 115.995 117.875 120.75 117.875H135.125V123.625H129.375V129.375H143.75V143.75C143.75 145.334 142.459 146.625 140.875 146.625H123.49C122.302 133.662 113.163 122.636 100.625 119.085V115C100.625 110.245 96.7552 106.375 92 106.375C87.2448 106.375 83.375 110.245 83.375 115V119.085C70.8371 122.636 61.6975 133.664 60.5101 146.625H40.25C38.6659 146.625 37.375 145.334 37.375 143.75V140.728C53.4692 139.271 66.125 125.718 66.125 109.25C66.125 91.8131 51.9369 77.625 34.5 77.625C17.0631 77.625 2.875 91.8131 2.875 109.25C2.875 125.718 15.5308 139.271 31.625 140.728V143.75C31.625 148.505 35.4948 152.375 40.25 152.375H60.5216C61.9793 168.469 75.532 181.125 92 181.125C108.468 181.125 122.021 168.469 123.478 152.375H140.875C145.63 152.375 149.5 148.505 149.5 143.75V129.375H163.875V123.625H158.125V117.875H172.5C177.255 117.875 181.125 114.005 181.125 109.25V74.75C181.125 69.9947 177.255 66.125 172.5 66.125ZM8.625 109.25C8.625 94.9843 20.2343 83.375 34.5 83.375C48.7658 83.375 60.375 94.9843 60.375 109.25C60.375 123.516 48.7658 135.125 34.5 135.125C20.2343 135.125 8.625 123.516 8.625 109.25ZM92 152.375C96.7552 152.375 100.625 148.505 100.625 143.75V138.029C104.173 140.697 106.375 144.917 106.375 149.5C106.375 157.426 99.9264 163.875 92 163.875C84.0736 163.875 77.625 157.426 77.625 149.5C77.625 144.917 79.8272 140.697 83.375 138.029V143.75C83.375 148.505 87.2448 152.375 92 152.375ZM89.125 115C89.125 113.416 90.4159 112.125 92 112.125C93.5841 112.125 94.875 113.416 94.875 115V143.75C94.875 145.334 93.5841 146.625 92 146.625C90.4159 146.625 89.125 145.334 89.125 143.75V115ZM92 175.375C77.7343 175.375 66.125 163.766 66.125 149.5C66.125 138.457 73.2032 128.728 83.375 125.126V131.396C76.4376 134.705 71.875 141.709 71.875 149.503C71.875 160.6 80.9025 169.628 92 169.628C103.097 169.628 112.125 160.6 112.125 149.503C112.125 141.712 107.562 134.705 100.625 131.396V125.126C110.797 128.728 117.875 138.457 117.875 149.5C117.875 163.766 106.266 175.375 92 175.375ZM120.75 71.875H172.5C174.084 71.875 175.375 73.1659 175.375 74.75V100.625H117.875V74.75C117.875 73.1659 119.166 71.875 120.75 71.875ZM152.375 123.625H140.875V117.875H152.375V123.625ZM172.5 112.125H120.75C119.166 112.125 117.875 110.834 117.875 109.25V106.375H175.375V109.25C175.375 110.834 174.084 112.125 172.5 112.125Z" fill="#1DC0BE"/>
<path d="M11.5 71.875H40.25C45.0052 71.875 48.875 68.0052 48.875 63.25V40.25H77.625C79.2091 40.25 80.5 41.5409 80.5 43.125V80.5H86.25V43.125C86.25 38.3698 82.3802 34.5 77.625 34.5H48.875V11.5C48.875 6.74475 45.0052 2.875 40.25 2.875H11.5C6.74475 2.875 2.875 6.74475 2.875 11.5V63.25C2.875 68.0052 6.74475 71.875 11.5 71.875ZM40.25 66.125H11.5C9.91587 66.125 8.625 64.8341 8.625 63.25V60.375H43.125V63.25C43.125 64.8341 41.8341 66.125 40.25 66.125ZM8.625 54.625V20.125H43.125V54.625H8.625ZM11.5 8.625H40.25C41.8341 8.625 43.125 9.91587 43.125 11.5V14.375H8.625V11.5C8.625 9.91587 9.91587 8.625 11.5 8.625Z" fill="#1DC0BE"/>
<path d="M43.125 120.75C43.125 115.995 39.2552 112.125 34.5 112.125C29.7447 112.125 25.875 115.995 25.875 120.75C25.875 125.505 29.7447 129.375 34.5 129.375C39.2552 129.375 43.125 125.505 43.125 120.75ZM31.625 120.75C31.625 119.166 32.9159 117.875 34.5 117.875C36.0841 117.875 37.375 119.166 37.375 120.75C37.375 122.334 36.0841 123.625 34.5 123.625C32.9159 123.625 31.625 122.334 31.625 120.75Z" fill="#1DC0BE"/>
<path d="M44.666 110.584L48.7313 106.519C40.8854 98.6729 28.1175 98.6729 20.2716 106.519L24.3369 110.584C29.9403 104.981 39.0598 104.981 44.666 110.584Z" fill="#1DC0BE"/>
<path d="M52.7965 102.454L56.8617 98.3883C44.5309 86.0574 24.4663 86.0574 12.1354 98.3883L16.2006 102.454C26.2948 92.3651 42.7052 92.3651 52.7965 102.454Z" fill="#1DC0BE"/>
<path d="M80.5 97.75H86.25V103.5H80.5V97.75Z" fill="#1DC0BE"/>
<path d="M80.5 86.25H86.25V92H80.5V86.25Z" fill="#1DC0BE"/>
<path d="M97.75 97.75H103.5V103.5H97.75V97.75Z" fill="#1DC0BE"/>
<path d="M97.75 86.25H103.5V92H97.75V86.25Z" fill="#1DC0BE"/>
<path d="M103.5 37.375C103.5 35.7909 104.791 34.5 106.375 34.5H123.772C125.218 49.0073 137.494 60.375 152.375 60.375C168.228 60.375 181.125 47.4777 181.125 31.625C181.125 15.7723 168.228 2.875 152.375 2.875C137.491 2.875 125.218 14.2428 123.772 28.75H106.375C101.62 28.75 97.75 32.6197 97.75 37.375V80.5H103.5V37.375ZM152.375 8.625C153.275 8.625 155.201 11.5661 156.578 17.25H148.172C149.549 11.5661 151.475 8.625 152.375 8.625ZM157.605 23C157.826 24.7652 157.99 26.6714 158.067 28.75H146.677C146.754 26.6714 146.921 24.7652 147.14 23H157.605ZM152.375 54.625C151.475 54.625 149.549 51.6839 148.172 46H156.578C155.201 51.6839 153.275 54.625 152.375 54.625ZM147.145 40.25C146.924 38.4847 146.76 36.5786 146.683 34.5H158.073C157.996 36.5786 157.829 38.4847 157.61 40.25H147.145ZM163.82 34.5H175.177C174.924 36.5067 174.421 38.4359 173.682 40.25H163.392C163.605 38.3611 163.751 36.4349 163.82 34.5ZM175.177 28.75H163.82C163.751 26.8151 163.605 24.8889 163.392 23H173.682C174.418 24.8141 174.924 26.7432 175.177 28.75ZM140.93 28.75H129.573C129.826 26.7432 130.33 24.8141 131.068 23H141.358C141.145 24.8889 140.999 26.8151 140.93 28.75ZM140.93 34.5C140.999 36.4349 141.145 38.3611 141.358 40.25H131.068C130.332 38.4359 129.826 36.5067 129.573 34.5H140.93ZM134.449 46H142.267C142.819 48.6421 143.532 51.0916 144.429 53.1817C140.481 51.7212 137.04 49.2229 134.449 46ZM160.321 53.1817C161.218 51.0916 161.931 48.6421 162.483 46H170.301C167.71 49.2229 164.269 51.7212 160.321 53.1817ZM170.301 17.25H162.483C161.931 14.6079 161.218 12.1584 160.321 10.0683C164.269 11.5288 167.71 14.0271 170.301 17.25ZM144.429 10.0683C143.532 12.1584 142.821 14.6079 142.267 17.25H134.449C137.04 14.0271 140.481 11.5288 144.429 10.0683Z" fill="#1DC0BE"/>
</svg>
